<?xml version="1.0" encoding="utf-8"?>
<!-- Generator: Adobe Illustrator 18.0.0, SVG Export Plug-In . SVG Version: 6.00 Build 0)  -->
<!DOCTYPE svg PUBLIC "-//W3C//DTD SVG 1.1//EN" "http://www.w3.org/Graphics/SVG/1.1/DTD/svg11.dtd">
<svg version="1.1" xmlns="http://www.w3.org/2000/svg" xmlns:xlink="http://www.w3.org/1999/xlink" x="0px" y="0px"
	 viewBox="0 0 300 90" enable-background="new 0 0 300 90" xml:space="preserve">
<g id="Layer_2">
</g>
<g id="Layer_1">
	<path fill="#FFFFFF" d="M99,64.5c-5.5-5.4-8.2-14.4-8.3-14.8l-3-12.1c0-0.1,0-0.1-0.1-0.2l-3.3-13.7l4-2.8c0.2-0.2,2.4-1.8,1.8-3.7
		c-0.6-2-3.7-2.8-9.9-2.8c-0.7,0-1.2,0.5-1.2,1.2c0,0.7,0.5,1.2,1.2,1.2c6.5,0,7.5,1,7.6,1.2c0,0.2-0.4,0.7-0.9,1l-4.6,3.3
		c-0.4,0.3-0.6,0.8-0.5,1.3l1.8,7.5c-1,1.7-11.7,19.3-28.1,19.8l-6.3-28.3c-0.1-0.6-0.8-1-1.4-0.9c-0.6,0.1-1,0.8-0.9,1.4l2.5,11.3
		L28.3,64.7c0,0,0,0,0,0.1c0,0,0,0.1-0.1,0.1c0,0,0,0.1,0,0.1c0,0,0,0.1,0,0.1c0,0,0,0.1,0,0.1c0,0,0,0,0,0.1c0,0,0,0,0,0
		c0,0,0,0.1,0,0.1c0,0,0,0.1,0,0.1c0,0,0,0.1,0,0.1c0,0,0,0.1,0,0.1c0,0,0,0.1,0,0.1c0,0,0,0.1,0.1,0.1c0,0,0,0.1,0.1,0.1
		c0,0,0,0.1,0.1,0.1c0,0,0.1,0.1,0.1,0.1c0,0,0.1,0.1,0.1,0.1c0,0,0,0,0,0c0,0,0,0,0.1,0c0,0,0,0,0.1,0c0.1,0,0.1,0.1,0.2,0.1l0,0
		c0.1,0,0.1,0,0.2,0c0,0,0,0,0,0l28.9,2.8c0,0,0.1,0,0.1,0c0,0,0,0,0,0l0,0h0c0.1,0,0.2,0,0.2,0c0,0,0,0,0,0c0,0,0,0,0,0
		c0,0,0,0,0.1,0c0,0,0.1,0,0.1,0c0,0,0,0,0,0c0,0,0,0,0.1,0c0,0,0.1,0,0.1-0.1c0,0,0,0,0,0c0,0,0,0,0.1,0c0,0,0.1-0.1,0.1-0.1
		c0,0,0,0,0,0c0,0,0,0,0,0l26.8-28.8l2.5,10.1c0,0,0,0,0,0c0.1,0.4,2.8,9.9,9,15.9c0.2,0.2,0.5,0.3,0.8,0.3c0.3,0,0.6-0.1,0.9-0.4
		C99.5,65.8,99.5,65,99,64.5z M56.7,66.9l-25.3-2.5l18.7-26.8L56.7,66.9z M58.9,65.8L56,53.2c7.5-0.4,14.8-4,21.5-10.6
		c3.2-3.2,5.5-6.3,6.9-8.4l0.8,3.2L58.9,65.8z"/>
	<path fill="#D6663E" d="M87.2,21.3c0,0,2.3,0.6,2.6,2.1c0.4-1.7,2.9-2.2,2.9-2c0,0,0,1.7-1.9,2.7c1.8,0.1,1.9,2.2,1.8,2.4
		c-0.1,0.2-2-0.2-2.6-1.6c0,1.6-2.4,2-2.5,1.9c0,0,0.3-2.5,1.5-2.5C86.9,23.6,87.5,21.5,87.2,21.3z"/>
	<path fill="#D6663E" d="M85.2,18.2c0,0,2.3,0.6,2.6,2.1c0.4-1.7,2.9-2.2,2.9-2c0,0,0,1.7-1.9,2.7c1.8,0.1,1.9,2.2,1.8,2.4
		c-0.1,0.2-2-0.2-2.6-1.6c0,1.6-2.4,2-2.5,1.9c0,0,0.3-2.5,1.5-2.5C84.9,20.5,85.5,18.3,85.2,18.2z"/>
	<path fill="#D6663E" d="M89.8,17.2c0,0,2.3,0.6,2.6,2.1c0.4-1.7,2.9-2.2,2.9-2c0,0,0,1.7-1.9,2.7c1.8,0.1,1.9,2.2,1.8,2.4
		c-0.1,0.2-2-0.2-2.6-1.6c0,1.6-2.4,2-2.5,1.9c0,0,0.3-2.5,1.5-2.5C89.5,19.5,90.1,17.4,89.8,17.2z"/>
	<path fill="#D6663E" d="M91.2,13.6c0,0,2.3,0.6,2.6,2.1c0.4-1.7,2.9-2.2,2.9-2c0,0,0,1.7-1.9,2.7c1.8,0.1,1.9,2.2,1.8,2.4
		c-0.1,0.2-2-0.2-2.6-1.6c0,1.6-2.4,2-2.5,1.9c0,0,0.3-2.5,1.5-2.5C90.9,15.9,91.4,13.7,91.2,13.6z"/>
	<path fill="#D6663E" d="M87.9,12.1c0,0,2.3,0.6,2.6,2.1c0.4-1.7,2.9-2.2,2.9-2c0,0,0,1.7-1.9,2.7c1.8,0.1,1.9,2.2,1.8,2.4
		c-0.1,0.2-2-0.2-2.6-1.6c0,1.6-2.4,2-2.5,1.9c0,0,0.3-2.5,1.5-2.5C87.7,14.4,88.2,12.3,87.9,12.1z"/>
	<path fill="#D6663E" d="M86.3,5.7c0,0,1.3,0.3,1.5,1.2c0.2-1,1.7-1.3,1.7-1.2c0,0,0,1-1.1,1.6c1,0,1.1,1.3,1,1.4
		c-0.1,0.1-1.2-0.1-1.5-0.9c0,0.9-1.4,1.2-1.5,1.1c0,0,0.2-1.4,0.8-1.5C86.2,7,86.5,5.8,86.3,5.7z"/>
	<path fill="#D6663E" d="M95.9,16.7c0,0,2.8,0.7,3.1,2.5c0.5-2.1,3.4-2.6,3.4-2.4c0,0,0,2-2.3,3.2c2.1,0.1,2.2,2.7,2.1,2.8
		c-0.1,0.2-2.4-0.2-3.1-1.9c-0.1,1.9-2.9,2.4-3,2.3c0,0,0.3-3,1.7-3C95.6,19.5,96.2,16.9,95.9,16.7z"/>
	<path fill="#D6663E" d="M93.5,7.1c0,0,2,0.5,2.2,1.9c0.3-1.5,2.5-1.9,2.5-1.8c0,0,0,1.4-1.7,2.3c1.5,0.1,1.6,1.9,1.5,2
		c-0.1,0.1-1.7-0.2-2.2-1.4c0,1.4-2.1,1.8-2.2,1.7c0,0,0.2-2.2,1.3-2.2C93.3,9.1,93.8,7.2,93.5,7.1z"/>
	<path fill="#D6663E" d="M92.1,19.8c0,0,2.3,0.6,2.6,2.1c0.4-1.7,2.9-2.2,2.9-2c0,0,0,1.7-1.9,2.7c1.8,0.1,1.9,2.2,1.8,2.4
		c-0.1,0.2-2-0.2-2.6-1.6c0,1.6-2.4,2-2.5,1.9c0,0,0.3-2.5,1.5-2.5C91.8,22.1,92.4,19.9,92.1,19.8z"/>
	<path fill="#D6663E" d="M100.6,17.8c0,0,2.3,0.6,2.6,2.1c0.4-1.7,2.9-2.2,2.9-2c0,0,0,1.7-1.9,2.7c1.8,0.1,1.9,2.2,1.8,2.4
		c-0.1,0.2-2-0.2-2.6-1.6c0,1.6-2.4,2-2.5,1.9c0,0,0.3-2.5,1.5-2.5C100.4,20.1,100.9,18,100.6,17.8z"/>
	<path fill="#D6663E" d="M96.6,14.5c0,0,2.3,0.6,2.6,2.1c0.4-1.7,2.9-2.2,2.9-2c0,0,0,1.7-1.9,2.7c1.8,0.1,1.9,2.2,1.8,2.4
		c-0.1,0.2-2-0.2-2.6-1.6c0,1.6-2.4,2-2.5,1.9c0,0,0.3-2.5,1.5-2.5C96.3,16.8,96.9,14.6,96.6,14.5z"/>
	<path fill="#D6663E" d="M99.3,2.4c0,0,1.8,0.5,1.9,1.6c0.3-1.3,2.2-1.6,2.2-1.5c0,0,0,1.3-1.4,2c1.3,0.1,1.4,1.7,1.3,1.8
		c-0.1,0.1-1.5-0.2-2-1.2c0,1.2-1.9,1.5-1.9,1.5c0,0,0.2-1.9,1.1-1.9C99.1,4.2,99.5,2.5,99.3,2.4z"/>
	<path fill="#D6663E" d="M98.7,11.4c0,0,2.3,0.6,2.6,2.1c0.4-1.7,2.9-2.2,2.9-2c0,0,0,1.7-1.9,2.7c1.8,0.1,1.9,2.2,1.8,2.4
		c-0.1,0.2-2-0.2-2.6-1.6c0,1.6-2.4,2-2.5,1.9c0,0,0.3-2.5,1.5-2.5C98.4,13.7,98.9,11.5,98.7,11.4z"/>
	<g>
		<path fill="#FFFFFF" d="M29.3,87.7C17,87.7,7,77.7,7,65.4c0-12.3,10-22.3,22.3-22.3s22.3,10,22.3,22.3
			C51.6,77.7,41.6,87.7,29.3,87.7L29.3,87.7z M29.3,44.9C18,44.9,8.8,54.1,8.8,65.4S18,85.9,29.3,85.9c11.3,0,20.5-9.2,20.5-20.5
			S40.6,44.9,29.3,44.9L29.3,44.9z"/>
	</g>
	<g>
		<path fill="#FFFFFF" d="M29.3,85.4c-11,0-20-9-20-20c0-11,9-20,20-20c11,0,20,9,20,20C49.3,76.4,40.3,85.4,29.3,85.4L29.3,85.4z
			 M29.3,46.3c-10.6,0-19.1,8.6-19.1,19.1s8.6,19.1,19.1,19.1c10.6,0,19.1-8.6,19.1-19.1S39.8,46.3,29.3,46.3L29.3,46.3z"/>
	</g>
	<g>
		<path fill="#FFFFFF" d="M98.2,87.7c-12.3,0-22.3-10-22.3-22.3c0-12.3,10-22.3,22.3-22.3c12.3,0,22.3,10,22.3,22.3
			C120.4,77.7,110.4,87.7,98.2,87.7L98.2,87.7z M98.2,44.9c-11.3,0-20.5,9.2-20.5,20.5s9.2,20.5,20.5,20.5
			c11.3,0,20.5-9.2,20.5-20.5S109.5,44.9,98.2,44.9L98.2,44.9z"/>
	</g>
	<g>
		<path fill="#FFFFFF" d="M98.2,85.4c-11,0-20-9-20-20c0-11,9-20,20-20c11,0,20,9,20,20C118.2,76.4,109.2,85.4,98.2,85.4L98.2,85.4z
			 M98.2,46.3C87.6,46.3,79,54.8,79,65.4s8.6,19.1,19.1,19.1c10.6,0,19.1-8.6,19.1-19.1S108.7,46.3,98.2,46.3L98.2,46.3z"/>
	</g>
	<g>
		<path fill="#FFFFFF" d="M55.8,23.8h-10c-3.9,0-6.3-3.5-6.4-3.6c-0.5-0.7-0.3-1.6,0.4-2.1c0.7-0.5,1.6-0.3,2.1,0.4
			c0,0,1.7,2.3,4,2.3h10c0.8,0,1.5,0.7,1.5,1.5C57.3,23.1,56.6,23.8,55.8,23.8L55.8,23.8z"/>
	</g>
	<path fill="#FFFFFF" d="M60,65.5l2.4-7.7l-1.7-0.5l-2.4,7.7c0,0,0,0-0.1,0c-1.8,0-3.3,1.5-3.3,3.3c0,1.2,0.6,2.2,1.5,2.8L54,78.7
		l1.7,0.5l2.4-7.7c0,0,0,0,0.1,0c1.8,0,3.3-1.5,3.3-3.3C61.5,67.1,60.9,66.1,60,65.5z"/>
	<g>
		<path fill="#FFFFFF" d="M64.5,58.5h-5.9c-0.6,0-1-0.5-1-1c0-0.6,0.5-1,1-1h5.9c0.6,0,1,0.5,1,1C65.5,58.1,65,58.5,64.5,58.5
			L64.5,58.5z"/>
	</g>
	<g>
		<path fill="#FFFFFF" d="M57.9,80h-5.9c-0.6,0-1-0.5-1-1s0.5-1,1-1h5.9c0.6,0,1,0.5,1,1S58.4,80,57.9,80L57.9,80z"/>
	</g>
	<path fill="#FFFFFF" d="M53.3,63c-1.3-12.4-11.6-21.7-24.1-21.7c-13.3,0-24.2,10.9-24.2,24.2c0,0.3,0.3,0.6,0.6,0.6
		c0.3,0,0.6-0.3,0.6-0.6c0-6.6,2.8-12.6,7.4-16.8L29,65.2c0,0,0,0,0,0c0,0,0,0,0.1,0c0,0,0,0,0,0c0,0,0.1,0,0.1,0h0l0,0l0,0
		c0,0,0,0,0,0c0,0,0,0,0,0c0,0,0,0,0.1,0c0,0,0,0,0,0c0,0,0,0,0,0c0,0,0,0,0,0c0,0,0,0,0,0c0,0,0,0,0,0c0,0,0,0,0-0.1c0,0,0,0,0-0.1
		c0,0,0,0,0,0l-2-22.4c0.5,0,1.1-0.1,1.7-0.1c11.8,0,21.7,8.9,22.9,20.6c0,0.3,0.3,0.6,0.7,0.5C53.1,63.6,53.4,63.3,53.3,63z
		 M28.9,64.2L14.1,48.2c3.5-3.1,8-5.2,12.9-5.7L28.9,64.2z"/>
	<g>
		<path fill="#FFFFFF" d="M58.2,61.5L58.2,61.5c0,0-28.5,0.1-28.6,0.1c-1.8,0-3.3,1.5-3.3,3.3c0,1.5,1,2.8,2.4,3.2
			c0,0,27.5,6.5,27.5,6.5c0,0,0,0,0,0c0.6,0.2,1.3,0.3,1.9,0.3c3.7,0,6.7-3,6.7-6.7C64.9,64.5,61.9,61.5,58.2,61.5z M58.2,74
			c-3.2,0-5.8-2.6-5.8-5.8c0-3.2,2.6-5.8,5.8-5.8h0c3.2,0,5.8,2.6,5.8,5.8C64,71.4,61.4,74,58.2,74z"/>
	</g>
	<g>
		<circle fill="#FFFFFF" cx="29.6" cy="64.9" r="3.3"/>
	</g>
	<g>
		<path fill="#FFFFFF" d="M80.4,17.1h-8.1c-0.8,0-1.5-0.7-1.5-1.5c0-0.8,0.7-1.5,1.5-1.5h8.1c0.8,0,1.5,0.7,1.5,1.5
			C81.9,16.5,81.2,17.1,80.4,17.1L80.4,17.1z"/>
	</g>
	<path fill="#FFFFFF" d="M98.2,42.4c0.3,0,0.6-0.3,0.6-0.6c0-0.3-0.3-0.6-0.6-0.6C84.8,41.2,74,52.1,74,65.4c0,0.3,0.3,0.6,0.6,0.6
		c0.3,0,0.6-0.3,0.6-0.6c0-0.6,0-1.1,0.1-1.7l22.9,2c0,0,0,0,0,0h0l0,0h0c0,0,0.1,0,0.1,0c0,0,0,0,0,0c0,0,0,0,0.1-0.1c0,0,0,0,0,0
		c0,0,0,0,0,0c0,0,0,0,0-0.1c0,0,0,0,0-0.1c0,0,0,0,0,0c0,0,0,0,0,0c0,0,0,0,0-0.1c0,0,0,0,0-0.1c0,0,0,0,0,0c0,0,0,0,0,0
		c0,0,0,0,0,0L80.1,51.3C84.3,45.9,90.8,42.4,98.2,42.4z M97.2,65l-21.8-1.9c0.4-4.2,2-8.1,4.4-11.4L97.2,65z"/>
	<path fill="#FFFFFF" d="M104.6,21.9c1,0,0.9,1.9,0,2c-0.5,0-0.5,0-0.5,0l-2.6,14.7H86.5l-2.5-15l-0.8,0c-0.9,0-0.9-1.7,0-1.7H104.6
		z"/>
	<text transform="matrix(1 0 0 1 130.4951 40.8369)"><tspan x="0" y="0" fill="#D6663E" font-family="'Montserrat-SemiBold'" font-size="22.4371">Andando</tspan><tspan x="0" y="26.9" fill="#D6663E" font-family="'Montserrat-Bold'" font-size="22.4371">Comunicación</tspan></text>
</g>
</svg>
